<?xml version="1.0" standalone="no"?>
<!DOCTYPE svg PUBLIC "-//W3C//DTD SVG 20010904//EN"
 "http://www.w3.org/TR/2001/REC-SVG-20010904/DTD/svg10.dtd">
<svg version="1.0" xmlns="http://www.w3.org/2000/svg"
 width="352.000000pt" height="340.000000pt" viewBox="0 0 352.000000 340.000000"
 preserveAspectRatio="xMidYMid meet">

<g transform="translate(0.000000,340.000000) scale(0.100000,-0.100000)"
fill="#2e8555" stroke="none">
<path d="M760 2400 l0 -995 250 250 250 250 250 -250 250 -250 250 250 250
250 250 -250 250 -250 0 995 0 995 -500 -500 -500 -500 -500 500 -500 500 0
-995z"/>
<path d="M2007 886 c-34 -32 -44 -84 -23 -124 20 -39 44 -52 96 -52 76 0 109
31 110 102 0 40 -4 50 -31 72 -42 36 -115 37 -152 2z"/>
<path d="M10 440 l0 -420 100 0 100 0 1 218 0 217 62 -122 62 -123 85 0 85 0
62 123 62 122 0 -217 1 -218 100 0 100 0 0 420 0 421 -96 -3 -95 -3 -107 -222
c-59 -122 -109 -222 -112 -223 -3 0 -53 100 -112 223 l-106 222 -96 3 -96 3 0
-421z"/>
<path d="M1600 735 l0 -85 -40 0 -40 0 0 -80 0 -80 39 0 39 0 4 -178 c3 -167
4 -179 27 -216 35 -56 85 -76 194 -76 l87 0 0 80 0 80 -39 0 c-66 0 -71 12
-71 171 l0 139 60 0 60 0 0 80 0 80 -60 0 -60 0 0 85 0 85 -100 0 -100 0 0
-85z"/>
<path d="M1079 642 c-72 -29 -116 -69 -146 -130 -23 -47 -28 -73 -31 -153 -7
-162 35 -257 139 -314 45 -24 68 -30 140 -33 121 -6 186 14 248 76 64 64 81
117 81 247 0 159 -39 238 -144 292 -69 36 -216 43 -287 15z m202 -170 c27 -24
32 -36 36 -94 12 -148 -20 -208 -109 -208 -41 0 -54 5 -79 29 -28 29 -29 32
-29 136 0 104 1 107 29 136 41 41 107 41 152 1z"/>
<path d="M2428 643 c-64 -21 -126 -76 -154 -137 -21 -45 -24 -66 -24 -171 0
-105 3 -126 24 -171 29 -62 92 -118 158 -140 71 -23 217 -16 274 14 56 29 103
77 128 132 28 62 30 251 3 322 -25 64 -100 132 -168 152 -67 20 -180 20 -241
-1z m199 -167 c28 -24 28 -25 28 -141 0 -116 0 -117 -28 -141 -31 -26 -101
-33 -139 -13 -31 17 -48 71 -48 153 0 124 28 165 112 166 35 0 54 -6 75 -24z"/>
<path d="M3184 641 c-23 -10 -49 -29 -58 -42 l-16 -23 0 37 0 37 -95 0 -95 0
0 -315 0 -315 100 0 100 0 0 204 c0 202 0 205 24 233 20 23 32 28 71 28 37 0
51 -5 66 -24 17 -21 19 -41 19 -232 l0 -209 106 0 106 0 -4 238 c-4 253 -10
285 -61 341 -55 60 -180 80 -263 42z"/>
<path d="M1980 335 l0 -315 100 0 100 0 0 315 0 315 -100 0 -100 0 0 -315z"/>
</g>
</svg>
